<svg xmlns="http://www.w3.org/2000/svg" viewBox="0 0 100 100" aria-hidden="true"><ellipse cx="50" cy="83" rx="30" ry="5" fill="#09080d" fill-opacity="0.2"/><path d="M27 35 24 19l15 10M61 29l15-10-3 17" fill="#d9a767"/><path d="M20 66c1-14 14-23 30-23s29 9 30 23v13H20Z" fill="#ae794d"/><rect x="23" y="25" width="54" height="48" rx="20" fill="#f2d9b1"/><path d="M28 34c8-16 34-16 44 0" fill="none" stroke="#fff0d5" stroke-width="3"/><circle cx="37" cy="48" r="10" fill="#d2aa7e" stroke="#9e7456" stroke-width="2"/><circle cx="63" cy="48" r="10" fill="#d2aa7e" stroke="#9e7456" stroke-width="2"/><path d="M47 47h6" stroke="#9e7456" stroke-width="2"/><g><path d="M33.5 48q3 2.52 6 0M59.5 48q3 2.52 6 0" fill="none" stroke="#4b3b3c" stroke-width="2.4" stroke-linecap="round"/></g><path d="m46 62 4 3 4-3" fill="none" stroke="#936247" stroke-width="2" stroke-linecap="round"/><path d="m38 77 12 6 12-6" fill="none" stroke="#e1b783" stroke-width="2"/></svg>