<svg xmlns="http://www.w3.org/2000/svg" viewBox="0 0 100 100" aria-hidden="true"><ellipse cx="50" cy="83" rx="30" ry="5" fill="#09080d" fill-opacity="0.2"/><path d="M23 84c2-13 12-19 27-19s25 6 27 19Z" fill="#c48a74"/><g transform="rotate(-9 37 40)"><rect x="31" y="8" width="12" height="34" rx="6" fill="#e8b49d"/><rect x="34.5" y="13" width="5" height="23" rx="2.5" fill="#f8d8ca"/></g><g transform="rotate(9 63 40)"><rect x="57" y="8" width="12" height="34" rx="6" fill="#e8b49d"/><rect x="60.5" y="13" width="5" height="23" rx="2.5" fill="#f8d8ca"/></g><ellipse cx="50" cy="53" rx="24" ry="21.5" fill="#f6dfd2"/><ellipse cx="43" cy="61.5" rx="7.5" ry="5.5" fill="#fff3ec"/><ellipse cx="57" cy="61.5" rx="7.5" ry="5.5" fill="#fff3ec"/><ellipse cx="32" cy="57" rx="4.2" ry="2.6" fill="#F08FAA" opacity=".45"/><ellipse cx="68" cy="57" rx="4.2" ry="2.6" fill="#F08FAA" opacity=".45"/><g><g><circle cx="41" cy="50" r="3.1" fill="#5a3f37"/><circle cx="59" cy="50" r="3.1" fill="#5a3f37"/><circle cx="42" cy="49" r="1" fill="#fff"/><circle cx="60" cy="49" r="1" fill="#fff"/></g></g><path d="M47.4 56.5h5.2L50 59.6Z" fill="#e58fa6" stroke="#e58fa6" stroke-width="1" stroke-linejoin="round"/><rect x="47.6" y="63" width="4.8" height="5" rx="1.2" fill="#FFFDF8"/></svg>